<?xml version="1.0" encoding="utf-8"?>
<!-- Generator: Adobe Illustrator 19.1.0, SVG Export Plug-In . SVG Version: 6.00 Build 0)  -->
<svg version="1.1" id="Layer_1" xmlns="http://www.w3.org/2000/svg" xmlns:xlink="http://www.w3.org/1999/xlink" x="0px" y="0px" viewBox="0 0 144 144" style="enable-background:new 0 0 144 144;" xml:space="preserve">
  <style type="text/css">
	.st0{fill:#FFFFFF;}
	.st1{fill:#B0C6D2;}
	.st2{fill:#5C6670;}
	.st3{fill:#FFFFFF;stroke:#333E48;stroke-width:1.5233;stroke-miterlimit:10;}
	.st4{fill:#333E48;}
	.st5{fill:#E2231A;}
	.st6{fill:#45BCD8;}
	.st7{fill:#FF8C47;}
	.st8{fill:#D0D5D6;}
	.st9{fill:#F6F9FB;}
	.st10{fill:#008FBE;}
	.st11{fill:#C3C6C8;}
	.st12{fill:#FF6C0C;}
	.st13{fill:#E7EAED;}
	.st14{fill:#AAB5BE;}
	.st15{fill:#EF8425;}
	.st16{fill:#0391C2;}
	.st17{fill:#465259;}
	.st18{fill:#732282;}
	.st19{fill:#293B4D;}
	.st20{fill:none;stroke:#333E48;stroke-width:1.3501;stroke-miterlimit:10;}
	.st21{fill:#FFFFFF;stroke:#333E48;stroke-width:2.0566;stroke-miterlimit:10;}
	.st22{fill:#F1F2F2;}
	.st23{opacity:0.11;fill:#010101;}
	.st24{fill:#F7A800;}
	.st25{fill:none;stroke:#5C6670;stroke-width:0.8126;stroke-miterlimit:10;}
	.st26{fill:#B34FC5;}
	.st27{fill:#FFFFFF;stroke:#FFFFFF;stroke-width:4.8756;stroke-miterlimit:10;}
	.st28{fill:#364A5E;}
	.st29{fill:#5E6E7F;}
	.st30{fill:#FBFBFB;}
	.st31{fill:#63A70A;}
	.st32{fill:#C4D600;}
	.st33{fill:#F5F6F7;}
	.st34{fill:#D1D5D7;}
	.st35{fill:#FFFFFF;stroke:#FFFFFF;stroke-width:3.7892;stroke-miterlimit:10;}
	.st36{fill:#A4A9AD;}
	.st37{fill:#FBFADB;}
	.st38{fill:#70B344;}
	.st39{fill:#FFFFFF;stroke:#5C6670;stroke-width:2.7605;stroke-miterlimit:10;}
	.st40{fill:none;stroke:#732282;stroke-width:0.9879;stroke-miterlimit:10;}
	.st41{fill:#CDD3DA;}
	.st42{fill:#C2531A;}
	.st43{fill:#005D84;}
	.st44{fill:none;stroke:#C4D600;stroke-width:1.6258;stroke-miterlimit:10;}
	.st45{fill:none;stroke:#D0D5D6;stroke-width:1.7199;stroke-miterlimit:10;}
</style>
  <g>
    <g>
      <path class="st0" d="M70.7,125C41.6,125,18,101.4,18,72.3s23.6-52.7,52.7-52.7s52.7,23.6,52.7,52.7S99.7,125,70.7,125z" />
      <path class="st0" d="M70.7,21.2c28.2,0,51.1,22.9,51.1,51.1s-22.9,51.1-51.1,51.1c-28.2,0-51.1-22.9-51.1-51.1
			S42.4,21.2,70.7,21.2 M70.7,18c-29.9,0-54.3,24.3-54.3,54.3s24.3,54.3,54.3,54.3c29.9,0,54.3-24.3,54.3-54.3S100.6,18,70.7,18
			L70.7,18z" />
    </g>
    <circle class="st44" cx="70.7" cy="72.3" r="51.1" />
    <g>
      <g>
        <polygon class="st31" points="57,64.4 70.7,72.3 84.3,64.4 70.7,56.5 			" />
        <polygon class="st32" points="70.7,72.3 70.7,88.1 57,80.2 57,64.4 			" />
        <polygon class="st16" points="84.3,64.4 84.3,80.2 70.7,88.1 70.7,72.3 			" />
      </g>
      <g>
        <g>
          <g>
            <rect x="51.5" y="55.4" transform="matrix(0.5005 -0.8657 0.8657 0.5005 -27.2833 75.6834)" class="st32" width="0.9" height="12.2" />
            <rect x="89" y="77" transform="matrix(0.5003 -0.8659 0.8659 0.5003 -27.2875 118.9385)" class="st32" width="0.9" height="12.2" />
            <rect x="89" y="55.4" transform="matrix(0.5005 0.8657 -0.8657 0.5005 97.8808 -46.6857)" class="st32" width="0.9" height="12.2" />
            <rect x="51.5" y="77" transform="matrix(0.4983 0.867 -0.867 0.4983 98.117 -3.3378)" class="st32" width="0.9" height="12.2" />
            <rect x="70.2" y="30.8" class="st32" width="0.9" height="25.9" />
            <rect x="70.2" y="87.8" class="st32" width="0.9" height="25.9" />
            <rect x="31.9" y="49" class="st32" width="0.9" height="7.3" />
            <rect x="31.9" y="88.3" class="st32" width="0.9" height="7.3" />
            <rect x="108.6" y="49" class="st32" width="0.9" height="7.3" />
            <rect x="97.4" y="57.3" class="st32" width="10.2" height="0.9" />
            <rect x="97.4" y="86.4" class="st32" width="10.2" height="0.9" />
            <rect x="33.8" y="57.3" class="st32" width="10.2" height="0.9" />
            <rect x="33.8" y="86.4" class="st32" width="10.2" height="0.9" />
          </g>
          <polygon class="st32" points="109.5,95.1 109,94.7 108.6,95.1 108.6,88.3 109.5,88.3 				" />
        </g>
      </g>
      <g>
        <g>
          <rect x="30.8" y="56.3" class="st31" width="2.9" height="2.9" />
          <rect x="30.8" y="85.4" class="st31" width="2.9" height="2.9" />
          <rect x="107.6" y="56.3" class="st31" width="2.9" height="2.9" />
          <rect x="107.6" y="85.4" class="st31" width="2.9" height="2.9" />
          <rect x="44" y="56.3" class="st31" width="2.9" height="2.9" />
          <rect x="44" y="85.4" class="st31" width="2.9" height="2.9" />
          <rect x="94.5" y="56.3" class="st31" width="2.9" height="2.9" />
          <rect x="94.5" y="85.4" class="st31" width="2.9" height="2.9" />
        </g>
      </g>
    </g>
    <g>
      <rect x="59.3" y="111.5" class="st0" width="22.7" height="22.7" />
      <rect x="61.6" y="113.8" class="st38" width="18.2" height="18.2" />
    </g>
    <g>
      <rect x="59.3" y="10.4" class="st0" width="22.7" height="22.7" />
      <rect x="61.6" y="12.6" class="st38" width="18.2" height="18.2" />
    </g>
    <g>
      <path class="st0" d="M38.7,101.3l-0.1-0.4c0.2-0.5,0.4-1.1,0.4-1.7c0-3.7-4.6-6.5-10.8-6.5h0c-6.1,0-10.8,2.8-10.8,6.5
			c0,0.6,0.1,1.2,0.4,1.7l-0.1,0.4c-0.2,0.5-0.2,0.9-0.2,1.4c0,0.6,0.1,1.2,0.4,1.7l-0.1,0.4c-0.2,0.5-0.2,0.9-0.2,1.4
			c0,3.7,4.6,6.5,10.8,6.5c6.1,0,10.8-2.8,10.8-6.5c0-0.5-0.1-0.9-0.2-1.4l-0.1-0.4c0.2-0.5,0.4-1.1,0.4-1.7
			C39,102.3,38.9,101.8,38.7,101.3z" />
      <path class="st38" d="M37.1,105.3c0.1,0.3,0.1,0.6,0.1,0.9c0,2.7-4.1,4.8-9.1,4.8h0c-5,0-9.1-2.2-9.1-4.8c0-0.3,0.1-0.6,0.1-0.9
			c1.7,1.9,5,3.1,8.9,3.1C32.1,108.4,35.5,107.2,37.1,105.3z M28.2,105c-3.9,0-7.3-1.2-8.9-3.1c-0.1,0.3-0.1,0.6-0.1,0.9
			c0,2.7,4.1,4.8,9.1,4.8h0c5,0,9.1-2.2,9.1-4.8c0-0.3-0.1-0.6-0.1-0.9C35.5,103.7,32.1,105,28.2,105z M28.2,94.4L28.2,94.4
			c-5,0-9.1,2.2-9.1,4.8c0,2.7,4.1,4.8,9.1,4.8h0c5,0,9.1-2.2,9.1-4.8C37.3,96.6,33.2,94.4,28.2,94.4z" />
    </g>
    <g>
      <path class="st0" d="M125.1,39.1l-0.1-0.4c0.2-0.5,0.4-1.1,0.4-1.7c0-3.7-4.6-6.5-10.8-6.5h0c-6.1,0-10.8,2.8-10.8,6.5
			c0,0.6,0.1,1.2,0.4,1.7l-0.1,0.4c-0.2,0.5-0.2,0.9-0.2,1.4c0,0.6,0.1,1.2,0.4,1.7l-0.1,0.4c-0.2,0.5-0.2,0.9-0.2,1.4
			c0,3.7,4.6,6.5,10.8,6.5c6.1,0,10.8-2.8,10.8-6.5c0-0.5-0.1-0.9-0.2-1.4l-0.1-0.4c0.2-0.5,0.4-1.1,0.4-1.7
			C125.3,40.1,125.2,39.6,125.1,39.1z" />
      <path class="st38" d="M123.5,43.1c0.1,0.3,0.1,0.6,0.1,0.9c0,2.7-4.1,4.8-9.1,4.8h0c-5,0-9.1-2.2-9.1-4.8c0-0.3,0.1-0.6,0.1-0.9
			c1.7,1.9,5,3.1,8.9,3.1C118.5,46.2,121.8,45,123.5,43.1z M114.5,42.7c-3.9,0-7.3-1.2-8.9-3.1c-0.1,0.3-0.1,0.6-0.1,0.9
			c0,2.7,4.1,4.8,9.1,4.8h0c5,0,9.1-2.2,9.1-4.8c0-0.3-0.1-0.6-0.1-0.9C121.8,41.5,118.5,42.7,114.5,42.7z M114.5,32.2L114.5,32.2
			c-5,0-9.1,2.2-9.1,4.8s4.1,4.8,9.1,4.8h0c5,0,9.1-2.2,9.1-4.8S119.6,32.2,114.5,32.2z" />
    </g>
    <g>
      <path class="st0" d="M124.2,99c-1.3-3.8-4.9-6.4-9-6.4c-3.4,0-6.5,1.8-8.2,4.6c-3.8,0.6-6.6,3.9-6.6,7.8l0,4.5l0,1.2
			c0,1.2,1,2.2,2.2,2.2h1.2h18.3c3.9,0,7.1-3.2,7.1-7.1C129.2,102.6,127.1,99.9,124.2,99z" />
      <path class="st38" d="M115.2,94.8c-3,0-5.6,1.8-6.8,4.5c0,0-0.1,0-0.1,0c-3.1,0-5.7,2.5-5.7,5.7l0,4.5l0,1.2h1.2h18.3
			c2.7,0,4.9-2.2,4.9-4.9c0-2.6-2-4.7-4.6-4.9C121.8,97.5,118.8,94.8,115.2,94.8L115.2,94.8z" />
    </g>
    <g>
      <path class="st0" d="M38.2,33.2c-1.3-3.8-4.9-6.4-9-6.4c-3.4,0-6.5,1.8-8.2,4.6c-3.8,0.6-6.6,3.9-6.6,7.8l0,4.5l0,1.2
			c0,1.2,1,2.2,2.2,2.2h1.2h18.3c3.9,0,7.1-3.2,7.1-7.1C43.2,36.9,41.1,34.2,38.2,33.2z" />
      <path class="st38" d="M29.2,29.1c-3,0-5.6,1.8-6.8,4.5c0,0-0.1,0-0.1,0c-3.1,0-5.7,2.5-5.7,5.7l0,4.5l0,1.2h1.2h18.3
			c2.7,0,4.9-2.2,4.9-4.9c0-2.6-2-4.7-4.6-4.9C35.8,31.7,32.8,29.1,29.2,29.1L29.2,29.1z" />
    </g>
  </g>
</svg>